<?xml version="1.0" encoding="utf-8"?>
<!-- Generator: Adobe Illustrator 16.0.0, SVG Export Plug-In . SVG Version: 6.00 Build 0)  -->
<!DOCTYPE svg PUBLIC "-//W3C//DTD SVG 1.1//EN" "http://www.w3.org/Graphics/SVG/1.1/DTD/svg11.dtd">
<svg version="1.1" id="Layer_1" xmlns="http://www.w3.org/2000/svg" xmlns:xlink="http://www.w3.org/1999/xlink" x="0px" y="0px"
	 width="959px" height="593px" viewBox="0 0 959 593" enable-background="new 0 0 959 593" xml:space="preserve">
<path id="FL" fill="#D3D3D3" stroke="#FFFFFF" stroke-width="0.75" d="M814.795,465.652l3.264,6.822l5.07,9.166l6.643,9.021
	l4.602,6.08l5.637,5.49l4.584,3.799l2.021,2.795l-0.975,1.029l-0.646,1.066l3.936,7.004l3.332,2.943l3.326,5.082l4.369,5.627
	l5.678,7.916l2.32,6.959l2.08,10.783l0.893,1.67l0.121,3.006l-2.283,0.881l0.586,1.777l-0.395,1.666l0.648,2.213l0.748,1.793
	l-2.348,2.584l-2.916,0.951l-3.9-0.303l-1.262,1.283l-2.324,0.59l-1.373-0.582l-1.271-1l-0.717-2.648l-1.27-3.137l-4.121-5.027
	l-3.902-2.439l-3.967-0.738l-0.646,1.068l-3.688-4.268l-1.129-3.264l-3.152-3.922l-1.953-1.219l-1.354,1.697l-1.844-0.494
	l-2.793-4.736l-3.459-3.813l-3.652-5.121l-3.027-3.051l-4.092-3.744l1.805-1.932l2.539-4.557l-0.375-1.467l-4.711-1.393
	l-1.551,0.393l0.414,0.619l2.746,1.168l-0.871,3.891l-0.754,0.344l-2.334-3.83l-1.953-4.496l-0.693-2.504l0.848-4.037l-1.27-8.553
	l-3.6-3.686l-1.719-2.904l-5.406-1.756l-2.049-0.801l-1.979-2.506l-3.648-1.842l-1.598-3.172l-2.912-1.189l-2.943-3.611
	l-4.447-1.791l-3.139-1.639l-2.617-0.297l-3.982,0.258l0.094,1.721l0.947,0.963l-0.34,0.961l-3.129-0.5l-3.289,2.762l-3.34,1.33
	l-3.926-0.447l-3.1,0.791l-0.693-2.506l-1.893-1.924l-3.094-1.35l-1.83-1.49l-8.695-4.41l-7.924-2.471l-4.33,0.078l-5.986-0.254
	l-5.773,1.197l-3.438,0.148l-1.313-7.246l-2.873-2.037l-2.035-1.799l-0.082-2.717l10.133,0.014l25.455,0.328l6.785,0.203
	l5.535,0.877l3.133,3.777l1.666,1.471l8.262,1.395l10.861,0.664l21.594,1.318l5.424,0.023l5.193,0.768l0.816,2.66l2.367,0.98
	l-0.377-4.123l-2.102-3.918l1.133-1.141l5.68,1.047L814.795,465.652L814.795,465.652z M845.092,585.826l2.369-0.299l1.275-0.07
	l1.16-1.936l2.156-1.182l1.373,0.584l1.76,0.484l0.549,0.99l-3.354,0.688l-4.059,0.82l-2.215,0.816L845.092,585.826L845.092,585.826
	z M858.084,582.885l1.365,1.082l2.5-1.568l4.842-3.154l3.246-3.051l1.652-5.656l0.758-1.41l-0.287-3.023l-0.674,0.35l-0.605,2.426
	l-0.857,3.963l-2.574,4.34l-3.855,3.266l-3.18,1.348L858.084,582.885L858.084,582.885z"/>
<path id="NH" fill="#D3D3D3" stroke="#FFFFFF" stroke-width="0.75" d="M897.75,213.511l0.734-0.865l0.666-2.825l-2.695-1.111
	l-0.896-2.811l-4.078-1.461l-0.691-2.501l-10.479-21.858l-6.59-13.57l-0.906-0.107l-0.439,1.375l-0.721-0.51l-1.109-0.98
	l-1.213,1.572l0.619,4.507l1.07,5.118l2.326,2.688l0.539,3.625l-3.092,4.111l-2.463,0.717l0.148,1.014l1.381,1.725l1.141,7.683
	l0.406,8.17l0.48,4.329l1.152,1.272l0.439,4.041l-0.254,1.54l1.074,0.747l16.396-2.034l2.123-0.291l1.494-2.274L897.75,213.511
	L897.75,213.511z"/>
<g id="MI">
	<path id="MI-" fill="#D3D3D3" stroke="#FFFFFF" stroke-width="0.75" d="M717.283,223.67l-4.369-7.765l-3.492-8.378l-2.883-3.179
		l-2.855-1.892l-1.486,0.828l-3.688,1.148l-1.297,4.271l-2.285,3.018l-1.059,0.449l-1.559-0.748c0,0-2.811-1.602-2.732-2.163
		c0.074-0.563-0.176-4.438-0.176-4.438l3.262-0.769l0.367-2.951l0.309-2.245l2.24-1.169l-1.66-9.026l-1.938-2.215l-1.416-0.873
		l-1.098-1.979l0.709-0.632l1.682,0.478l-0.053-1.432l-2.752-2.308l-1.652-2.467l-2.617-0.298l-4.773-1.827l-6.014-3.678
		l-2.781-0.317l-0.566,0.506l-1.047-0.547l-3.41-2.383l-2.705,1.26l-2.645,1.694l0.797,3.226l1.027,0.402l2.191,0.678l0.598,0.78
		l-2.51,0.427l-2.572-0.007l-1.236,1.427l-0.049,1.846l0.543,1.488l1.059,4.966l-3.32,1.476l-0.676-0.22l-0.561-3.769l0.988-2.025
		l0.33-2.101l-0.922-0.817l-1.857,0.5l-0.42,3.659l-2.631,0.698l-1.543,1.535l-0.035,0.851l0.762,0.801l-0.311,2.245l-2.223,0.174
		l0.15,1.015l1.139,2.267l-0.328,5.378l-1.1,3.438l1.277,4.278l0.645,1.071l-0.498,2.081l-0.221,0.688l0.041,2.427l4.395,5.772
		l3.803,6.134l2.117,4.517l-0.193,4.11l-0.188,5.252l-1.764,4.359l0.037,2.428l-2.889,2.391l4.439,0.362l21.371,0.436l7.232-0.047
		l0.32,1.505l6.771-0.298l10.217-0.163l3.842,0.03l0.059-0.511l-0.029-1.285l1.633-3.093l1.791-1.329l-0.893-4.554l1.4-1.249
		l1.061-0.181l-0.25-3.164l1.15-2.542l1.145,0.665l0.252,0.6l0.836,0.238l1.838-0.646L717.283,223.67L717.283,223.67z"/>
	<path id="SP-" fill="#D3D3D3" stroke="#FFFFFF" stroke-width="0.75" d="M587.018,124.945l1.576-1.634l2.092-0.468l4.918-2.867
		l2.24-0.249l0.521,0.462l-4.518,4.021l-3.096,1.361l-1.963,0.583L587.018,124.945L587.018,124.945z M678.477,163.674l0.988,2.321
		l3.295,0.518l1.148-0.938c0,0-0.277-1.314-0.625-1.497c-0.35-0.182-1.883-1.853-1.883-1.853l-2.176-0.034l-1.615-0.042
		l-0.176,0.978L678.477,163.674L678.477,163.674z M576.6,149.462l0.646-0.438l2.674-0.41l3.301-1.62l-0.131-0.871l0.568-0.504
		l5.922-0.183l2.197-1.46l4.133-1.382l-0.008-1.141l1.576-2.386l1.691-0.521l1.074-1.444l1.988-1.769l4.094-1.673l4.678,0.104
		l1.297,1.146l-0.199,0.832l-3.635,0.441l-1.064,2.587l-2.182,0.464l-0.166,2.119l-2.025,2.62l0.016,2.282l0.885,0.529l0.83-0.903
		l3.211-2.201l1.482,1.31l2.287,0.26l3.4,1.242l1.623,1.182l1.883,2.921l3.143,2.781l3.906,0.302l1.342-0.703l1.809,1.345
		l1.699,0.621l1.201-0.576l1.145,0.131l1.506-0.684l3.617-2.725l3.283-0.623l6.664,0.473l4.32-1.219l2.449-0.86l1.49,0.311
		l0.754,5.074l0.535,0.346l3.049,1.059l1.898-0.211l6-0.743l0.994-0.884l1.537,0.603l0.924,6.233l3.682,3.127l1.393,0.729
		l1.438,1.019l-1.264,0.141l-0.861-0.383l-3.826-0.863l-2.039,0.339l-2.313-0.406l-3.078,0.932l-1.801-0.206l-6.059-1.83
		l-5.213-0.451l-1.621,2.096l-6.945-0.218l-2.346,0.445l-0.736,2.625l-1.158,0.865l-0.512-0.201l-1.688-1.618l-4.258,1.653
		l-0.654-0.075l-1.359-1.58l-0.797,0.053l-1.383,3.691l-0.443,3.512l-2.289,5.911l-1.328-1.063l-1.523-1.082l-3.334-9.449
		l-3.768-1.636l-2.383-2.287l-12.625-3.855l-3.027-1.251l-8.617-2.896l-8.135-1.933L576.6,149.462L576.6,149.462z"/>
</g>
<path id="VT" fill="#D3D3D3" stroke="#FFFFFF" stroke-width="0.75" d="M862.553,219.763l-0.389-4.757l-4.361-10.004l-0.695-0.364
	l-3.115-1.495l0.43-2.518l-1.096-1.977l-3.35-4.472l0.467-3.368l-1.508-4.732L845.623,180l-1.471-4.507l25.838-2.996l1.047,4.987
	l2.303,2.681l0.537,3.623l-3.076,4.11l-2.465,0.726l0.137,1.004l1.527,1.513l0.762,7.226l0.615,8.233l0.508,4.957l1.15,1.271
	l0.447,4.081l-0.268,1.459l1.123,0.769l-7.324,0.496L862.553,219.763L862.553,219.763z"/>
<path id="ME" fill="#D3D3D3" stroke="#FFFFFF" stroke-width="0.75" d="M931.83,161.326l2.242,2.106l2.783,3.595l0.258,1.739
	l-1.504,3.962l-1.875,0.358l-3.027,2.362l-4.178,4.37c0,0-0.654-0.075-1.307-0.148c-0.656-0.075-1.262-1.996-1.262-1.996
	l-1.777-0.059l-0.787,1.193l-2.26,1.025l-0.787,1.193l1.828,1.491l-0.402,0.524l-0.127,2.408l-1.986-0.368l-0.213-1.45l-0.5-1.196
	l-1.428,0.123l-2.229-3.104l-1.955,0.915l1.5,1.453l0.479,1.053l-0.645,1.067l0.732,2.791l0.381,1.47l-1.293,2.133l-2.879,0.098
	l0.061,2.573l-4.99,2.14l-1.244,0.286l-1.83-1.49l-2.635,2.834l1.41,3.011l-1.299,0.993l0.416,3.895l-0.305,5.483l-2.643-1.32
	l-0.898-2.81l-4.076-1.462l-0.693-2.502l-10.479-21.857l-6.699-13.667l1.422,0.058l1.586,0.542l-0.344-2.319l0.725-3.883
	l1.994-3.906l0.934-3.457l-2.285-2.398l-0.795-5.363l0.691-0.777l0.451-2.372l-0.357-1.323l-0.809-4.367l1.154-4.145l1.762-7.639
	l1.564-3.527l1.311,0.149l1.332,0.293l0.148,1.016l1.611,2.179l2.865,0.896l0.709-0.632l-0.129-0.871l3.703-2.144l1.561-1.391
	l1.494,0.312l6.375,2.863l2.092,1.093l13.135,27.859l6.055,0.689l1.076,1.833l0.807,4.367l3.246,2.365l0.814,0.091l0.102-0.416
	l-0.641-1.071L931.83,161.326L931.83,161.326z M914.66,185.949l1.348-1.201l1.531,1.102l0.895,2.239l-1.6,0.603L914.66,185.949z
	 M920.664,181.431l2.043,1.87c0,0,1.322,0.223,1.275-0.067c-0.041-0.29-0.021-1.784-0.021-1.784l0.793-0.624l-1.055-1.687
	l-1.947,0.42L920.664,181.431z"/>
<path id="RI" fill="#D3D3D3" stroke="#FFFFFF" stroke-width="0.75" d="M895.791,245.439l-5.73-13.836l6.1-0.931l2.473,1.979
	l3.92,4.255l3.305,4.257l-2.818,1.112l-1.332-0.294l-0.906,1.464l-2.197,1.46L895.791,245.439L895.791,245.439z"/>
<path id="NY" fill="#D3D3D3" stroke="#FFFFFF" stroke-width="0.75" d="M852.893,249.244l-1.271-1l-2.641-0.443l-2.547-2
	l-2.465-5.684l-3.488-0.317l-2.832-2.709l-19.033,1.698l-42.344,2.878l-7.459,0.234l-1.607-5.886l1.299-0.844l1.156-0.865
	l0.766-1.337l1.65-0.809l1.727-1.372l0.273-1.395l1.762-2.222l1.018-0.74l-0.293-0.889l-1.717-2.903l-1.82-0.35l-2.781-5.732
	l2.709-1.26l4.225-0.802l3.914-0.694l3.207-0.063l6.359,0.581l2.135,1.383l1.654,0.331l1.955-0.918l2.469-0.716l5.168,0.161
	l1.889-1.353l1.371-2.695l1.377-1.553l2.129,0.242l1.811-0.792l-0.135-2.011l-1.752-2.052l-0.521-1.341l0.867-1.754l-0.193-1.305
	l-1.801-0.206l-1.906-0.929l-0.969-1.108l-0.508-2.339l5.158-4.258l0.547-0.651l1.084-2.441l2.344-3.724l2.287-3.017l1.803-1.933
	l2.201-1.358l2.951-0.764l5.389-0.527l3.291,0.517l4.389-0.783l7.377-0.987l1.191,4.526l3.313,6.077l1.504,4.731l-0.467,3.368
	l3.221,4.356l1.096,1.978l-0.43,2.517l3.117,1.496l0.695,0.363l4.568,10.211l0.131,4.475l0.949,9.657l1.547,5.021l1.293,3.284
	l2.438,6.69l1.076,7.248l-0.844,1.899l2.125,2l1.029,1.596l-1.727,1.371l0.498,1.197l1.268-0.142l1.299-0.992l1.945-2.059
	l1.059-0.45l1.723,0.767l2.311,0.405l7.502-2.567l2.578-2.13l1.113-1.156l4.469,1.933l-2.963,2.798l-3.539,2.163l-6.488,3.965
	l-2.488,0.571l-5.631,1.07l-3.938,0.549l-1.258-0.612l-0.738-3.334l0.125-2.41l-0.443-1.903l-3.072-1.847l-4.709-1.392l-4.074-1.459
	L852.893,249.244L852.893,249.244z"/>
<path id="PA" fill="#D3D3D3" stroke="#FFFFFF" stroke-width="0.75" d="M852.355,280.872l1.287-0.094l2.191-0.854l0.895-2.087
	l1.336-1.844l2.863-2.381l-0.109-0.725l-2.664-1.729l-3.922-2.583l-1.328-2.432l-2.822-0.604l-0.314-1.035l-1.186-2.557l2.141-0.754
	l-0.158-2.157l-1.48-1.308l-0.051-1.43l1.555-2.532l-0.408-2.754l2.377-2.061l-1.021-0.711l-2.578-0.462l-2.58-2.005l-2.381-5.662
	l-3.533-0.314l-2.844-2.706l-17.746,1.682l-42.348,2.879l-8.803,0.282l-1.494-5.919l-4.75,3.926l-1.246,0.287l-3.85,2.214
	l5.486,17.496l3.807,9.011l6.176,17.683l3.221-0.196l11.887,0.027l37.354-2.508l14.676-0.82l8.182-0.499l0.238-0.183l1.912-1.207
	L852.355,280.872L852.355,280.872z"/>
<path id="NJ" fill="#D3D3D3" stroke="#FFFFFF" stroke-width="0.75" d="M852.148,248.907l-1.986,2.185l0.408,2.754l-1.555,2.53
	l0.051,1.431l1.482,1.31l0.16,2.157l-2.141,0.753l1.184,2.557l0.316,1.035l2.822,0.604l1.322,2.432l3.92,2.583l2.672,1.73
	l0.107,0.724l-2.662,2.075l-1.332,1.844l-1.107,2.298l-2.119,0.897l-0.256,1.385l-0.084,1.059l-0.27,2.268l1.404,2.138l3.658,2.981
	l5.207,2.589l4.176,1.044l0.357,1.323l-0.689,0.776l0.693,2.501l0.816,0.094l1.801-1.934l0.176-4.255l2.242-3.308l2.248-5.444
	l0.412-4.8l-0.803-1.089l-1.408-8.426l-2.09-3.23l-1.037,0.595l-2.738-0.026l-0.555-0.491l1.018-0.739l1.865-1.498l-0.08-0.974
	l-0.846-3.123l0.217-2.397l-0.383-1.781l-3.072-1.893l-5.309-1.642l-4.369-1.713l-3.848-1.889L852.148,248.907z"/>
<path id="DE" fill="#D3D3D3" stroke="#FFFFFF" stroke-width="0.75" d="M853.34,284.147l0.088-1.884l0.156-1.472l-1.588,0.169
	l-1.574,0.233l-2,1.328l2.412,4.721l3.045,5.335l3.416,8.938l2.471,5.84l5.051,0.432l6.057-0.352l-3.271-6.883l-0.916,0.322
	l-3.922-2.584l-2.422-4.409l-2.438-3.413l-3.564-2.936l-1.152-1.98L853.34,284.147L853.34,284.147z"/>
<path id="MD" fill="#D3D3D3" stroke="#FFFFFF" stroke-width="0.75" d="M870.883,307.42l-5.918,0.387l-5.189-0.486l-2.783-6.418
	l-3.17-8.444l-3.426-5.847l-1.889-4.092l-7.379,0.591l-14.674,0.819l-36.889,2.46l1.811,4.625l1.734,5.185l0.283-0.253l1.805-1.932
	l1.941-2.087l2.371-0.272l1.279-1.138l1.457-2.113l1.393,0.727l2.902,0.046l2.338-1.587l1.84-1.071l1.799-0.224l1.814,1.203
	l3.137,1.64l2.199,1.817l1.432,1.517l4.398,1.997l0.385,2.609l5.734,1.793l1.229,0.617l1.16-1.656l3.178,2.098l-0.963,2.078
	l-0.244,3.486l-1.453,2.115l0.279,1.885l0.891,1.668l5.303,1.799l4.354,0.441l3.234,1.223l2.17,0.531l0.703-1.771l-1.752-2.053
	l-0.236-1.594l-2.732-2.164l-2.855-5.17l0.598-4.635l-0.443-1.904l-1.482-1.31c0,0,1.26-1.281,1.172-1.862
	c-0.084-0.579,0.211-1.828,0.211-1.828l1.791-0.938l1.748-1.227l0.619,0.926l-1.258,1.282l-0.813,3.186l0.475,1.05l1.846,0.495
	l1.221,4.985l-2,0.627l0.803,3.227l0.469-0.088l0.885-1.611l1.873,1.783l-1.463,0.973l0.125,3.006l3.068,3.342l3.99,0.883
	l1.527-0.539l3.83,4.123l1.447,0.637l6.359-1.74l1.494-3.379L870.883,307.42L870.883,307.42z M855.926,313.678l1.477,2.375
	l0.4,1.613l1.393,1.799c0,0,0.781-0.695,0.74-0.986c-0.043-0.289-1.145-2.838-1.145-2.838l-1.049-2.186L855.926,313.678
	L855.926,313.678z"/>
<path id="VA" fill="#D3D3D3" stroke="#FFFFFF" stroke-width="0.75" d="M864.451,318.725l-0.406-1.762l6.189-1.545l-0.352,2.797
	l-2.453,3.053l0.189,4.064l0.916,3.094l-1.188,4.252l-1.936,1.469l-2.105-4.33l-0.27-4.834l1.047-3.57L864.451,318.725
	L864.451,318.725z M871.592,344.486l-57.188,4.58l-37.166,0.426l-6.809-1.105l-2.361,1.43l-7.393-0.646l-8.352-0.088l-10.828,0.191
	l9.846-3.826l-0.289-1.863l1.252-1.748l9.148-9.1l4.59,4.471l3.957,1.299l2.422-0.729l2.088-0.92l2.744,1.498l3.771-0.83
	l1.293-3.869l2.703,0.783l2.607-1.582l1.885,0.65l2.369-2.973l0.078-1.828l-1.145-1.254l0.766-1.559l3.703-10.402l-0.139-5.072
	l1.174-0.328l2.529,2.443l3.943,0.182l0.943-6.57l2.754-0.18l0.697-2.338l2.297-1.807l2.047-4.787l-0.584-4.535l10.441,4.558
	c0.736,0.385,0.172-4.432,0.172-4.432l3.908,1.854l0.461,2.643l6.025,1.83l2.316,1.301l1.949,2.035l-0.176,3.195l-1.627,2.1
	l0.387,1.859l0.842,1.73l5.205,1.709l4.512,0.549l3.232,1.213l2.006,0.502l1.135,2.85l3.281,0.73l1.035,1.174l0.18,4.154
	l1.539,1.148l-0.227,1.676l1.35,0.85l-0.043,1.215l-2.738-0.395l0.307,1.459l2.512,1.645l0.311,1.281l2.031,1.805l0.834,2.32
	l-2.396,0.943l1.787,1.521l5.645-0.844L871.592,344.486L871.592,344.486z"/>
<path id="WV" fill="#D3D3D3" stroke="#FFFFFF" stroke-width="0.75" d="M789.563,286.313l1.781,4.563l1.898,5.532l1.813-2.07
	l1.881-2.493l2.488-0.259l1.277-1.137l1.455-2.116l1.549,0.747l2.9,0.046l2.338-1.587l1.84-1.072l1.803-0.223l1.451,1.061
	l3.93,2.054l2.199,1.818l1.561,1.317l-0.031,4.893l-6.24-2.95l-4.514-1.943l0.588,4.631l-2.041,4.648l-2.242,1.883l-0.838,2.33
	l-2.607,0.145l-0.43,3.125l-0.529,3.422l-3.971-0.15l-2.676-2.455l-1.01,0.379l0.088,4.832l-0.895,3.014l-3.561,9.252l1.061,1.145
	l0.047,1.688l-2.324,3.16l-1.902-0.695l-2.717,1.596l-2.648-0.807l-1.416,3.854c0,0-3.109,0.908-3.791,0.775
	c-0.16-0.031-2.66-1.402-2.66-1.402l-2.182,0.967l-2.299,0.66l-3.908-1.23l-1.291-1.178l-2.619-2.961l-3.443-2.145l-2.215-3.445
	l-4.795-3.605l-0.957-2.104l-2.813-1.602l-1.029-1.541l-0.945-4.74l2.199,0.178l1.854-0.502l-0.201-2.445l1.443-1.117l-0.506-4.477
	l0.467-3.367l1.223-0.432l1.459,1.164l0.729,1.65l1.668-0.666l0.275-1.393l-1.381-1.727l-0.322-2.174l0.811-1.047l1.838-2.785
	l1.115-1.156l2.191,0.678l2.072-1.189l2.658-2.689l1.775-3.22l-0.428-5.037l-0.176-4.437l-0.623-4.202l-1.555-2.884l0.789-1.194
	l1.127-1.011l6.17,18.182l4.586-0.141L789.563,286.313L789.563,286.313z"/>
<path id="OH" fill="#D3D3D3" stroke="#FFFFFF" stroke-width="0.75" d="M757.328,242.412l-5.625,2.934l-3.625,1.584l-2.939,2.943
	l-3.576,3.014l-3.164,0.353l-2.881,0.1l-5.215,1.687l-2.105-0.096l-3.844-3.145l-5.15-0.017l-2.807-1.601l-2.59-1.485l-4.855,0.067
	l-10.092,0.277l-11.047,0.669l3.252,13.267l3.629,12.528l5.732,21.315l1.217,4.398l4.152,0.359l2.346-0.447l3.602,1.736l2.678,4.152
	l5.195,0.576l2.197,2.117l1.771,0.145l2.391-0.912l2.584,0.623l5.547,1.057l1.465-1.713l2.199-0.891l2.01-0.371l1.018,2.539
	l1.928,1.074l3.83,2.504l2.197,0.178l1.283-0.289l-0.182-2.455l1.412-1.121l-0.537-4.285l0.49-3.566l1.23-0.391l1.494,1.182
	l0.768,1.582l1.6-0.732l0.25-1.258l-1.383-1.836l-0.24-2.066l0.617-0.875l1.736-2.718l0.859-1.262l2.189,0.676l2.076-1.189
	l2.656-2.69l2.262-3.339l-0.348-4.496l-0.174-4.438l-0.887-4.78l-1.352-2.705l0.199-1.027l1.592-1.361l-3.52-8.376L757.328,242.412
	L757.328,242.412z"/>
<path id="IN" fill="#D3D3D3" stroke="#FFFFFF" stroke-width="0.75" d="M654.387,324.715l-0.313-2.555l-0.111-4.004l1.904-2.348
	l1.283-3.275l2.057-3.471l-1.264-5.273l-2.164-2.67l-0.758-2.938l0.088-4.833l-1.414-6.29l-3.436-14.501l-3.352-13.919
	l-2.539-10.622l3.225,1.152l1.604,1.039l1.098-0.161l1.869-1.496l2.65-1.125l5.133,0.441l21.939,0.5l5.572,0.163l3.643,14.482
	l9.201,33.525l1.373,5.245l-0.074,1.986l1.479,1.752l0.281,1.24l-2.336,1.146l-3.375,0.984l-3.168,0.125l0.043,4.295l-4.189,2.443
	l-2.295,3.275l0.643,2.168l-0.385,1.309l-3.365-0.383l-1.816-1.631l-2.357,0.844l-2.516,1.039l0.572,2.758l-1.176,0.094
	l-0.609-0.967l-2.393-1.598l-3.109,0.826l-1.172,2.52l-1.561-0.891l-1.686-1.602l-4.449-0.078l-5.531,0.225L654.387,324.715
	L654.387,324.715z"/>
<path id="IL" fill="#D3D3D3" stroke="#FFFFFF" stroke-width="0.75" d="M654.41,325.045l-0.398-2.893l-0.045-4.102l1.975-2.346
	l1.344-3.439l1.73-3.326l-1.072-4.752l-2.502-3.408l-0.541-3.012v-4.644l-1.789-6.534l-3.178-14.271l-3.305-13.614l-2.482-10.543
	l-0.396-0.857l-1.16-2.412l-1.803-3.484l-1.873-1.781l-1.816-2.488l-0.967-4.949l-45.992-2.941l0.547,2.153l2.404,0.877l1.078,1.132
	l0.707,1.693l4.389,3.522l0.996,2.128l-0.236,2.997l-1.365,3.069l-0.359,2.176l-2.068,1.377l-1.76,0.405l-5.139,0.625l-0.451,1.561
	l-0.422,1.767l0.877,1.309l2.066,1.645l0.313,3.664l-1.635,1.226l-0.484,1.355l0.365,2.46l-1.789,0.199l-1.467,0.842l-0.049,1.203
	l0.506,1.872l-1.561,0.982l-0.668,2.393l0.949,3.333l3.285,6.822l8.404,7.607l6.037,3.911l0.35,3.87l1.105,1.334l6.537,1.146
	l2.959,1.545l-0.209,3.203l-1.521,5.066l-0.268,2.791l2.83,3.746l7.174,5.451l4.717,1.143l2.754,4.748l2.504,3.104l-0.529,2.564
	l2.166,3.871l2.125,2.059l1.313-0.629l0.645-1.754l2.006-1.314l2.074-0.305l2.789,1.357l3.857,1.652l1.16-0.131l-0.098-2.002
	l-1.623-2.311l-0.008-2.098l1.68-0.996l2.953-0.379l1.215-0.264l-0.805-1.316l-1.113-2.201l1.316-0.717L654.41,325.045
	L654.41,325.045z"/>
<path id="CT" fill="#D3D3D3" stroke="#FFFFFF" stroke-width="0.75" d="M895.783,245.41l-5.697-13.765l-4.654,0.281l-20.846,1.811
	l1.439,3.007l2.439,6.691l1.371,8.06l-0.945,1.811l2.197,1.953l3.805-3.01l3.168-2.49l1.684-1.662l0.902,0.673l2.59-0.987
	l5.082-0.42L895.783,245.41L895.783,245.41z"/>
<path id="WI" fill="#D3D3D3" stroke="#FFFFFF" stroke-width="0.75" d="M636.189,232.193l-0.486-2.838l-1.795-4.195l-1.471-5.583
	l-1.469-2.304l0.574-2.643l0.43-2.516l1.129-2.152l-1.107-3.119l-1.127-3.264l0.256-1.539l1.639-1.951l-0.201-2.446l-0.988-1.252
	l0.311-2.244l-1.014-3.792l2.029-4.758l2.041-5.753l-0.137-2.01l-0.455-0.906l-0.752,0.342l-3.416,5.17l-2.242,3.307l-1.729,1.371
	l-0.516,1.938l-1.869,0.5l-0.889,1.608l-1.516-0.457l-0.398-1.612l0.986-2.025l1.504-3.961l1.582-1.246l0.689-2l-2.844-1.999
	l-3.377-9.524l-3.766-1.61l-2.275-2.294l-12.639-3.837l-3.041-1.239l-8.598-2.889l-8.164-1.95l-4.492-5.035l-0.684,0.411
	l-1.236-0.283l-0.805-1.089l-1.311,0.113l-1.125,0.014l-1.67,0.666l-1.064-0.692l0.395-1.665l1.553-2.532l0.994-0.883l-2.156-1.527
	l-2.02,0.483l-2.686,1.404l-7.094,2.043l-2.859,0.245l-3.008-0.77l-1.109-0.901l-1.762,2.3l0.131,2.433l1.125,7.586l-0.945,1.303
	l-4.805,2.878l-1.521,5.068l0.492,0.257l2.818,2.135l1.121,2.95l-1.426,2.659l0.516,3.485l1.344,5.998l3.404,3.006l3.471,0.396
	l2.271,3.079l3.533,0.806l4.691,5.572l7.719,4.506l2.447,2.696l1.912,6.769l1.135,3.051l2.527,1.698l0.412,1.256l-1.627,2.838
	l0.658,2.896l3.061,3.775l2.697,1.313l3.066,0.754l1.543,1.391l45.475,2.82L636.189,232.193z"/>
<path id="NC" fill="#D3D3D3" stroke="#FFFFFF" stroke-width="0.75" d="M871.588,344.438l2.764,4.648l4.457,6.209l2.775,2.453
	l0.957,2.104l-2.432-0.133l0.904,0.674l0.23,3.73l-2.445,0.861l-0.375,1.811l-0.92,2.459l-3.547,1.023l-2.498-0.568l-1.492-0.313
	l-1.807-1.346l0.496,1.197l0.131,0.869l1.963,0.225l0.988,1.252l-1.123,5.43l4.254,0.484l0.869,1.525l1.986-1.77l1.244-0.287
	l-1.486,2.967l-2.465,3.996l-1.309-0.15l-1.209-0.563l-2.693,0.264l-4.914,1.576l-5.834,4.041l-2.811,3.813l-1.102,5.576
	l-0.17,2.117l-4.678-0.105l-5.338,0.572l-11.158-8.502l-13.768-8.264l-3.049-1.059l-12.566-0.146l-4.227,0.182l-2.066-3.086
	l-3.287-2.24l-16.619-1.465l-7.252-0.111l-8.559,3.016l-5.871,1.613l-21.084-0.119l-0.033-3.576l1.605-1.1l2.695-0.264l0.16-3.26
	l3.887-1.979l3.73-0.861l3.781-2.703l4.137-1.383l0.246-2.68l3.408-3.033l0.635-0.072c0,0,0.15,1.018,0.967,1.111
	c0.818,0.092,2.008,0.51,2.008,0.51l1.813-2.928l2.043-0.336l2.334,0.551l1.162-3.004l2.6-1.984l0.213-1.828l-0.297-3.25
	l4.324,0.471l7.168,0.063l15.646-0.207l15.035-0.129l21.268-1.742l19.654-1.518l10.988-0.871L871.588,344.438L871.588,344.438z
	 M880.324,374.705l2.283-1.947l2.846-1.957l1.467-0.404l-0.105-1.795l-1.471-5.582l-1.783-2.268l-0.902-1.742l0.705-0.133
	l3.512,5.244l1,4.031l0.287,3.027l-3.23,0.986l-2.539,1.848l-0.984,0.957L880.324,374.705L880.324,374.705z"/>
<path id="DC" fill="#D3D3D3" stroke="#FFFFFF" stroke-width="0.75" d="M836.301,302.1l-2.121-1.848l-1.338-0.76l1.189-1.646
	l3.184,2.08L836.301,302.1L836.301,302.1z"/>
<path id="MA" fill="#D3D3D3" stroke="#FFFFFF" stroke-width="0.75" d="M920.895,243.323l2.105-0.366l0.234-1.484l1.055,0.22
	l1.348,2.169l-1.211,0.265l-3.918-0.344L920.895,243.323z M911.518,242.96l1.961-2.095l1.623,0.185l2.045,1.542l-2.291,0.647
	l-2.063,0.672L911.518,242.96L911.518,242.96z M873.385,219.239l17.236-2.13l2.207-0.319l1.564-2.288l3.561-1.061l3.508,4.289
	l-1.766,4.36l-0.135,1.267l2.307,2.544l1.039-0.596l1.801,0.206l2.631,2.579l4.721,5.811l3.662,0.845l2.162-0.61l1.564-1.39
	l-1.184-2.557l-2.342-1.69l-1.365,0.557l-1.154-1.273l0.426-0.378l2.105,0.098l1.908,0.929l2.283,2.397l1.369,2.722l0.648,2.212
	l-4.059,0.821l-3.668,1.292l-3.322,3.613l-1.77,1.081l-0.129-0.87l2.26-1.026l0.252-1.539l-1.227-2.848l-2.748,0.97l-0.627,1.21
	l0.793,2.085l-1.957,0.659l-3.381-4.375l-4.016-4.304l-2.336-1.865l-6.361,0.933l-5.01,0.356l-20.311,1.737l-1.309-4.351
	l-0.754-9.42l4.223-0.304L873.385,219.239L873.385,219.239z"/>
<path id="TN" fill="#D3D3D3" stroke="#FFFFFF" stroke-width="0.75" d="M734.836,349.984L683,348.506l-15.709-0.221l-4.609-0.072
	l-3.918-0.469l0.324,3.652l-8.248-0.705l-6.947-0.221l-8.205-1.045l-0.488,6.18l-0.988,4.719l-2.965,2.09l-0.783,3.773l0.018,2.279
	l-3.787,1.566l1.945,3.357l-0.402,3.803l-0.875,0.594l108.049,3.117l-0.117-3.498l1.633-1.131l2.77-0.344l0.186-3.256l3.787-1.953
	l3.896-0.873l3.656-2.732l4.221-1.305l0.117-2.691l3.584-3.105l0.541-0.039c0,0,0.182,1.02,1.002,1.111
	c0.816,0.094,2.012,0.541,2.012,0.541l1.809-2.957l2.012-0.342l2.34,0.529l1.148-2.986l2.639-2.029l0.168-1.691l-0.182-3.291
	l-2.197-0.426l-2.363,1.518l-7.074-0.777l-18.256,0.027L734.836,349.984L734.836,349.984z"/>
<path id="AR" fill="#D3D3D3" stroke="#FFFFFF" stroke-width="0.75" d="M634.068,360.383l-3.93,0.186l-5.258-1.156l0.211-1.391
	l2.674-1.959l0.469-3.168l-2.242-2.875l-79.008-6.771l2.529,6.336l1.094,7.379l2.848,9.998l5.262,33.957l2.572,2.004l2.826-0.887
	l2.926,1.342l1.564,5.971l56.125,5.381l0.881-1.742l-0.76-3.217l-2.244-2.875l1.42-1.148l-1.951-2.434l0.357-2.178l0.639-4.867
	l2.273-1.559l-0.996-2.127l2.986-4.395l2.594-0.912l-0.313-1.352l-0.594-1.678l2.146-4.691l2.266-0.85l-0.068-3.029l1.627-0.908
	l-3.244-0.797l-1.891-3.752l2.518-1.809l0.291-1.746l0.756-3.48L634.068,360.383L634.068,360.383z"/>
<path id="MO" fill="#D3D3D3" stroke="#FFFFFF" stroke-width="0.75" d="M585.643,271.178l-2.957-3.057l-1.461-2.183l-64.797-5.255
	l-2.299-0.161l1.605,2.4l0.074,2.024l3.063,3.774l3.668,4.046l3.486,2.813l2.219,0.454l1.635,0.992l0.396,2.665l-1.641,1.225
	l-0.154,1.998l2.537,3.313l2.939,2.955l2.789,1.929l2.938,10.612l5.115,32.383l0.852,4.229l1.18,4.881l22.584,1.805l23.387,2.057
	l20.943,1.674l11.76,1.139l2.654,3.322l-0.254,2.885l-2.805,1.799l-0.338,1.582l5.506,1.029l3.848-0.168l1.008-4.727l-0.119-5.176
	l1.781-2.051l2.43-1.035l-0.354-2.729l0.771-1.619l-2.053-2.477l-1.217,0.73l-2.313-2.227l-1.932-4.414l0.473-2.168l-2.422-3.297
	l-2.459-4.314l-4.961-1.268l-7.797-5.822l-2.287-3.887l0.383-2.777l1.279-5.197l0.084-2.514l-2.109-1.15l-7.043-1.506l-1.27-1.652
	l-0.674-3.806l-6.008-3.709l-8.092-7.771l-3.283-6.823l-0.795-3.813L585.643,271.178L585.643,271.178z"/>
<path id="GA" fill="#D3D3D3" stroke="#FFFFFF" stroke-width="0.75" d="M715.121,380.623l0.291,1.957l0.443,1.902l1.107,3.121
	l4.488,7.494l3.766,9.121l2.287,5.674l2.283,4.537l2.395,6.398l2.965,5.896l3.068,3.34l0.939,3.104l2.074,0.945l0.441,1.904
	l-1.154,4.145l-0.061,2.846l0.094,1.721l2.217,4.1l1.035,4.818l-0.496,2.082l0.762,0.799l1.58,0.895l0.637,2.91l2.701,3.258
	l2.566,2.199l8.035,1.055l10.861,0.666l21.594,1.316l5.422,0.023l4.635,0.551l0.551,2.629l2.725,1.021l-0.252-3.877l-2.24-4.246
	l0.93-1.318l5.996,1.395l5.08,0.859l-1.623-5.74l0.957-8.723l0.914-3.605l-0.834-2.371l2.541-5.219l-0.695-1.271l-1.842,0.41
	l-2.791-1.457l-0.932-1.957l-1.781-3.34l-2.568-2.143l-2.703-0.879l-2.283-4.535l-3.801-6.014l-4.51-2.225l-2.387-1.982l-1.65-2.469
	l-2.383-1.98l-2.465-1.42l-2.676-2.869l-3.408-2.385l-4.816-2.117l-0.686-1.357l-2.842-2.891l-0.684-1.361l-4.094-4.846
	l-3.549-0.316l-4.115-2.547l-1.604-1.322l-0.564-1.631l0.623-1.641l2.105-0.736l-0.922-1.955L715.121,380.623L715.121,380.623
	L715.121,380.623z"/>
<path id="SC" fill="#D3D3D3" stroke="#FFFFFF" stroke-width="0.75" d="M815.863,438.465l-1.67,0.664l-2.789-1.457l-0.936-1.959
	l-1.781-3.336l-2.568-2.145l-2.705-0.881l-2.277-4.531l-3.578-5.684l-4.512-2.221l-2.383-1.982l-1.652-2.469l-2.387-1.98
	l-2.461-1.422l-2.676-2.867l-3.408-2.385l-4.818-2.115l-0.682-1.359l-2.842-2.891l-0.686-1.361l-4.123-5.029l-3.41-0.244
	l-4.412-2.639l-1.48-1.311l-0.564-1.633l0.559-1.646l2.162-0.607l-0.82-2.111l5.523-1.432l8.613-3.066l7.758,0.168l16.25,1.477
	l2.916,1.986l2.148,3.205l4.271-0.051l12.564,0.146l3.051,1.061l13.768,8.262l11.305,8.447l-4.758,4.27l-1.801,5.211l0.348,5.598
	l-1.529,0.539l-0.777,2.336l-2.369,0.301l-1.654,2.945l-2.414,2.148l-1.838,2.785l-1.529,0.537l-3.146,2.635l-2.924-0.189
	l1.412,3.01l-4.34,4.354L815.863,438.465L815.863,438.465z"/>
<path id="KY" fill="#D3D3D3" stroke="#FFFFFF" stroke-width="0.75" d="M761.443,332.75l-2,1.891l-3.092,3.168l-4.258,4.334l-1,1.398
	l0.217,1.877l-4.146,1.436l-5.273,2.395l-7.076,0.779l-51.826-1.576l-15.709-0.221l-4.609-0.072l-3.914-0.467l0.33,3.756
	l-8.256-0.811l-6.947-0.221l-8.09-0.973l1.047-1.045l2.324-1.096l-0.193-2.84l0.682-1.535l-1.963-2.463l0.557-1.619l2.053-1.334
	l2.041-0.338l2.953,1.479l3.77,1.568l1.102-0.16l-0.139-2.014l-1.627-2.32l0.025-1.992l1.771-1.082l2.527-0.283l1.551-0.393
	l-1.055-1.689l-0.912-1.814l1.393-0.719c-0.002-0.033,0.799-3.014,0.766-3.139l2.893-0.975l5.254-0.258l4.48,0.082l1.627,1.621
	l1.662,0.957l1.195-2.604l3.053-0.785l2.428,1.586l0.551,0.941l1.152-0.102l-0.559-2.666l2.936-1.209l2.029-0.715l1.77,1.666
	l3.352,0.342l0.387-1.342L688,319.084l2.098-3.285l4.379-2.533l0.068-4.256l2.9-0.072l3.617-1.037l2.246-1.252l-0.41-1.426
	l-1.35-1.436l0.176-2.621l4.219,0.375l2.227-0.402l3.576,1.666l2.658,4.15l5.195,0.6l2.369,2.217l1.613,0.053l2.463-0.848
	l5.375,1.119l2.635,0.488l1.434-1.648l2.459-0.979l1.809-0.418l1.035,2.621l2.207,1.184l2.949,2.17l0.871,5.1l1.029,1.504
	l2.826,1.693l1.086,2.146l4.666,3.561l2.309,3.457L761.443,332.75L761.443,332.75z"/>
<path id="AL" fill="#D3D3D3" stroke="#FFFFFF" stroke-width="0.75" d="M687.598,469.938l-3.414-13.016l-5.273-17.131l-1.707-12.594
	l-3.307-27.74l-2.379-14.945l-0.686-5.74l44.527,1.875l0.141,1.939l0.441,1.904l1.107,3.121l4.486,7.494l3.768,9.123l2.287,5.674
	l2.281,4.535l2.395,6.4l2.967,5.896l3.068,3.34l0.941,3.102l2.07,0.949l0.443,1.9l-1.154,4.145l-0.061,2.844l0.094,1.721l2.215,4.1
	l1.037,4.822l-0.494,2.082l0.762,0.799l1.578,0.893l0.717,2.629l-5.709-0.963l-6.785-0.203l-25.453-0.328l-10.348,0.064l0.158,2.553
	l2.035,1.801l2.873,2.035l1.645,7.184l-5.266,1.668l-2.824-0.605l2.523-1.424l-0.129-0.867l-3.904-5.719l-2.375-0.842L692,468.16
	l-0.943,2.314l-0.676-0.221L687.598,469.938L687.598,469.938z"/>
<path id="LA" fill="#D3D3D3" stroke="#FFFFFF" stroke-width="0.75" d="M663.816,466.127l-3.744-3.219l0.291-4.816l-0.789-0.875
	l-9.236-0.166l-25.264-2.469l-1.01-2.227l-0.203-7.477l2.566-4.947l3.934-7.215l-0.898-2.219l1.18-0.465l0.205-1.699l-2.588-2.107
	l-0.367-1.752l-2.434-4.107l-0.992-5.703l-56.006-5.557l1.305,8.588l1.939,8.486l1.211,3.563l3.092,3.98l1.594,4.615l5.125,5.42
	l0.656,2.895l0.785,0.695l0.432,7.506l-2.338,4.166l1.893,2.031l-0.359,2.176l0.279,6.48l-0.963,2.713l0.605,3.258l4.539-0.822
	l12.283,1.578l10.941,4.381l6.693,1.758l3.568-0.879l3.424,1.391l3.398,1.242l0.539-1.793l-3.424-1.387l-2.551,0.137l-2.998-1.766
	c0,0-0.008-1.143,0.625-1.211c0.633-0.07,2.98-0.516,2.98-0.516l1.992,1.51l1.668-0.668l3.359,0.953l1.793,2.342l0.627,2.068
	l4.625,0.811l2.033,1.797l-0.598,1.357l-1.203,0.576l1.852,1.635l8.977,4.158l3.428-0.75l0.66-2.064l2.529-0.281l1.605-1.1
	l1.439,1.02l1.201,2.699l-2.18,0.467l0.74,0.654l3.262-0.77l1.84-2.783l0.752-0.342l-2.168-0.531l0.6-1.357l-0.354-1.322
	l2.061-0.195l0.971-1.029l0.762,0.799c0,0,0.246,2.736,1.064,2.83s4.338,1.063,4.338,1.063l4.348,2.205l1.176,1.416l2.943,0.336
	l1.273,0.998l1.881-2.494l-0.193-1.303l-1.307-0.15l-3.801-2.854l-5.994-1.396l-3.572-2.4l0.777-2.334l2.332,0.549l0.08-0.561
	l-1.93-1.076l-0.064-0.434l3.275,0.373l1.387-2.551l-1.564-1.889l-0.693-2.5l-1.451-0.023l-1.684,1.66l-0.311,2.246l-3.189-0.936
	l-1.221-1.705l1.539-1.535l1.471-2.871l-1.395-2.285L663.816,466.127L663.816,466.127z"/>
<path id="MS" fill="#D3D3D3" stroke="#FFFFFF" stroke-width="0.75" d="M687.711,469.006l-0.09,1.096l-5.236-0.596l-1.578-0.893
	l-2.17-0.531l-6.611,0.961l-1.908-0.932l-2.057,3.473l-1.012,0.57l-1.469-2.359l-1.672-3.619l-3.896-3.262l0.418-4.842l-0.814-0.898
	l-1.818-0.004l-7.895-0.129l-24.787-2.492l-1.076-2.084l-0.23-7.41l2.4-4.729l4.072-7.598l-0.775-2.23l1.166-0.445l0.186-1.674
	l-2.621-2.131l-0.4-1.932l-2.406-3.908l-0.902-5.359l1.014-2.072l-0.682-3.086l-2.201-2.971l1.35-1.152l-1.922-2.422l0.242-1.43
	l0.729-5.672l2.244-1.541l-0.963-2.193l2.996-4.336l2.686-0.889l-0.447-1.529l-0.514-1.539l2.166-4.664l2.211-0.83l0.035-0.785
	l37.268,0.818l1.025,5.654l2.373,14.949l3.311,27.742l1.707,12.59l5.273,17.133L687.711,469.006L687.711,469.006z"/>
<path id="IA" fill="#D3D3D3" stroke="#FFFFFF" stroke-width="0.75" d="M590.07,228.9l0.637,2.528l2.328,0.774l1.127,1.208
	l0.752,1.721l4.285,3.45l1.012,2.222l-0.227,2.993l-1.172,2.716l-0.445,2.367l-1.984,1.187l-1.66,0.315l-5.398,1.026l-0.895,3.291
	l0.922,1.314l2.084,1.72l0.25,3.587l-1.578,1.175l-0.563,1.386l0.498,2.503l-1.848,0.192l-1.5,0.804l-0.104,1.18l0.564,1.929
	l-1.42,0.823l-2.916-3.094l-1.605-2.342l-66.174-5.312l-0.906,0.044l-2.678-4.287l-1.113-5.971l-2.168-3.874l-1.393-4.794
	l-2.799-3.544l-1.564-4.411l-3.777-7.081l-1.871-4.949l-1.678-2.105l-1.984-2.644l1.334-4.119l0.629-4.966l-3.051-2.161
	l-0.826-2.512l0.59-2.15l1.734,0.197l83.461,8.375l1.4,3.848l2.484,1.659l0.449,1.306l-1.604,2.806l0.619,2.896l3.049,3.695
	l2.729,1.451l3.184,0.806L590.07,228.9z"/>
<path id="MN" fill="#D3D3D3" stroke="#FFFFFF" stroke-width="0.75" d="M485.6,154.634l-1.588-7.637l-2.822-6.77l-3.644-12.307
	l-1.771-8.867l-2.306-3.286l-2.288-4.694l-1.367-9.225l0.176-3.407l-2.569-5.098l30.493,3.499l-0.768-7.355l0.633-0.071l2.355,0.697
	l2.07,0.947l1.549,5.021l2.289,5.676l1.848,1.636l4.906,0.558l0.521,1.342l6.422,1.015l0.281,1.884l4.906,0.558l0.158-1.122
	l0.992-0.886l2.205-0.319l1.438,1.019l2.943,0.334l4.27,2.767l5.721,2.788l2.518,0.713l0.363-0.813l1.406-0.268l0.877,2.667
	l2.789,1.456l0.428-0.377l1.328,0.292l0.281,1.886l2.746,1.168l3.109,0.354l1.525-0.539l2.844-2.527l2.553-0.137l1.053,1.687
	l0.662,1.215l0.984,0.113l0.871-0.613l8.955,0.734l2.207,2.959l0.654,0.074l0.58-0.891l4.439,0.178l-0.314,1.974l-3.742,1.194
	l-8.814,2.576l-4.564,1.25l-2.764,1.966l-1.982,2.911l-1.773,3.218l-1.691,0.52l-3.914,3.973l-1.287-0.005l-4.014,1.975l-2.064,2.59
	l0.193,2.836l1.166,7.224l-1.17,1.355l-4.641,2.787l-1.459,5.108l3.201,2.333l1.117,2.972l-1.449,2.69l0.674,3.381l1.268,6.078
	l3.461,3.04l3.367,0.383l2.334,3.027l3.484,0.84l4.658,5.53l7.719,4.508l2.549,2.824l1.533,5.852l-82.014-8.321l-5.084-32.03
	l-0.859-2.718l-4.619-3.548l-1.399-1.772l-0.212-1.436l1.867-1.197l1.207-1.071l-0.197-2.846L485.6,154.634z"/>
<path id="OK" fill="#D3D3D3" stroke="#FFFFFF" stroke-width="0.75" d="M415.115,315.877l-17.049-3.061l0.565,9.719l20.861,3.393
	l32.606,4.861l0.885,21.625l1.909,15.939l0.444,1.461l4.882,3.779l2.234,1.262l0.664-0.125l0.419-1.766l1.631,1.795l2.083,0.24
	l-0.183-1.229l2.958,1.545l0.055,3.432l4.194,0.68l2.696,1.313l4.255,1.088l2.786,1.93l2.041-1.58l3.561,1.01l3,3.363l0.926,0.105
	l0.305,2.051l2.404,0.879l2.01-1.789l1.939,0.826l2.547,0.291l1.258,2.359l6.652,2.59l1.297-0.457l1.305-3.48l1.156,0.131
	l1.43,1.977l4.256,1.088l3.885,1.654l3.127,1.16l1.729-0.609l0.359-2.178l4.395,0.5l2.203,1.057l2.502-1.527l1.156,0.131
	l0.908,1.514l4.162,0.475l1.346-1.66l1.912,0.619l2.416,2.492l3.482,2.012l3.359,1.188l2.113,1.227l-5.34-33.416l-2.852-10.002
	l-1.34-7.975l-2.326-6.027l-1.742-6.525l-0.578-3.434l-12.236-1.109l-47.018-5.754l-45.842-7.029L415.115,315.877L415.115,315.877z"
	/>
<path id="TX" fill="#D3D3D3" stroke="#FFFFFF" stroke-width="0.75" d="M397.311,322.449l23.104,3.586l31.611,4.602l0.756,20.764
	l2.113,16.246l0.346,1.875l4.902,3.926l2.202,1.523l1.125-0.365l0.136-1.586l1.394,1.75l2.143,0.279l-0.196-1.297l1.818,1.061
	l1.206,0.498l0.164,3.516l4.15,0.555l3.119,1.41l4.072,0.928l2.684,2.137l1.875-1.617l3.852,0.98l2.674,3.148l1.133,0.412
	l0.098,1.744l2.344,0.963l2.086-1.574l2.24,0.799l2.26,0.287l1.268,2.293l6.684,2.623l1.51-0.504l0.953-3.576l0.344,0.041
	l0.928,0.178l1.52,1.994l4.064,1.051l3.527,1.391l3.625,1.467l1.732-0.664l0.389-2.172l4.512,0.551l1.955,1.043l2.551-1.566
	l1.123,0.168l1.076,1.537l4.102,0.465l1.266-1.641l1.943,0.578l2.289,2.379l3.834,2.238l2.998,1.055l1.639,0.893l2.742,2.072
	l2.902-0.84l2.873,1.328l1.381,5.541l1.254,8.697l1.961,8.629l1.189,3.313l3.293,4.271l1.568,4.543l5.002,5.449l0.615,2.846
	l0.859,0.787l0.377,7.432l-2.24,4.158l1.836,2.109l-0.326,2.021l0.309,6.563l-1.08,2.82l0.764,3.176l-5.52,0.77l-9.375,2.924
	l-0.725,1.629l-2.357,1.441l-1.936,1.063l-1.199,0.574l-5.018,4.133l-2.498,1.568l-4.971,2.285l-5.402,1.523l-5.928,2.318
	l-1.604,1.1l-5.418,2.518l-3.348,0.189l-3.193,4.484l-4.049-0.176l-0.723,1.627l2.547,2.002l-0.738,4.762l-0.707,3.91l-0.631,3.348
	l-0.215,3.967l1.143,2.268l2.719,6.438l1.801,5.619l2.164,2.67l-0.787,1.191l-2.852,1.389l-6.24-4.133l-5.711-1.648l-1.244,0.289
	l-3.357-0.953l-4.66-3.238l-5.385-1.609l-8.139-3.918l-2.643-3.723l-2.168-5.947l-3.529-2.111l-0.955-2.104l0.568-0.508
	l-0.124-3.006l-1.396-0.727l-0.783-0.943l0.729-3.768l-1.937-2.215l-3.444-1.533l-4.015-4.303l-4.479-6.354l-4.596-2.805
	l-0.093-1.719l-7.032-11.633L453,470.801l-2.057-1.943l-0.357-1.324l-6.76-5.473l-3.026-3.053l-0.15-1.014l-2.897-2.184l-7.02-1.797
	l-7.611-1.436l-3.407-2.381l-4.345,1.072l-3.404,0.896l-1.86,2.637l-0.487,3.223l-3.599,5.008l-2.132,1.895l-2.746-1.168
	l-1.95-1.219l-2.048-0.805l-4.227-2.475l-0.086-0.58l-2.056-1.941l-5.514-2.48l-8.555-7.813l-2.913-4.467l-1.075-7.248l-4.131-6.172
	l-0.857-2.52l-1.764-1.055l-1.425-2.016l-5.35-2.459l-1.524-1.6l-8.25-7.92l-1.739-3.051l-5.043-2.568l-2.052-4.08l-3.003-2.906
	l-2.028-0.658l-1.278-4.27l8.187,1.535l29.743,5.805l29.59,4.775l-0.328-17.195l-3.455-49.367l-0.873-16.627l1.391,0.182
	 M529.254,539.9l-1.52-6.445l-3.736-6.768l-1.508-6.369l0.459-7.217l2.438-5.781l2.799-4.453l2.715-2.828l0.686,0.291l-3.943,5.395
	l-3.543,5.369l-1.164,5.711l0.357,4.6l1.719,5.611l3.572,6.75l1.18,4.695l0.355,1.322L529.254,539.9L529.254,539.9z"/>
<path id="NM" fill="#D3D3D3" stroke="#FFFFFF" stroke-width="0.75" d="M335.558,397.797l-1.416-4.346l8.816,1.465l30.918,6.115
	l27.815,4.654l-0.247-16.52l-3.525-49.662l-0.82-17.186l1.608,0.297l-0.651-9.916l-106.644-21.506l-1.69,105.979l15.907,3.563
	l-0.024-8.838L335.558,397.797L335.558,397.797z"/>
<path id="KS" fill="#D3D3D3" stroke="#FFFFFF" stroke-width="0.75" d="M544.631,333.748l-12.744-1.27l-46.693-5.717l-45.354-6.971
	l-25.087-3.965l-4.65-57.475l22.433,3.149l40.876,5.391l44.955,5.986l5.156,0.587l2.498,2.189l2.039,0.214l1.793,1.096l0.336,2.69
	l-1.619,1.339l-0.039,1.962l2.316,3.263l3.41,3.206l2.572,1.716l2.811,10.229L544.631,333.748L544.631,333.748z"/>
<path id="NE" fill="#D3D3D3" stroke="#FFFFFF" stroke-width="0.75" d="M511.463,256.204l4.201,6.667l0.176,2.05l4.232,5.325
	l3.17,3.139l-5.109-0.582l-44.12-5.847l-41.386-5.494l-22.618-3.263l-1.75-19.001l-33.087-6.339l-1.457-38.963l15.868,2.713
	l20.507,3.34l18.195,3.077l24.208,3.762l10.811,0.828l2.386,2.286l5.251,3.219l1.277,0.951l4.215-0.729l3.871,0.038l2.747,0.111
	l2.034,1.44l4.316,1.901l3.221,1.777l0.676,1.487l1.199,1.951l1.848,0.21l0.816,0.133l1.527,4.301l4.08,7.929l1.078,3.435
	l3.057,3.675l1.256,4.652l2.189,3.987L511.463,256.204L511.463,256.204z"/>
<path id="SD" fill="#D3D3D3" stroke="#FFFFFF" stroke-width="0.75" d="M496.822,222.207l-0.127-0.526l-3.572-4.678l1.254-4.012
	l0.729-5.106l-3.09-2.185l-0.756-2.506l0.463-2.198l3.227,0.379l-0.787-4.501l-4.352-27.096l-1.125-3.45l-4.564-3.457l-1.217-1.616
	l-0.277-1.45l1.842-1.139l1.33-1.316l-0.105-2.354l-59.157-8.141l-55.903-9.399l3.08,56.499l14.884,2.49l20.345,3.377l18.075,2.875
	l24.231,3.906l12.068,0.999l2.288,2.24l5.688,3.516l0.869,0.736l4.403-0.78l6.536,0.201l1.873,1.392l4.467,1.914l3.197,1.805
	l0.602,1.377l1.35,2.129L496.822,222.207L496.822,222.207z"/>
<path id="ND" fill="#D3D3D3" stroke="#FFFFFF" stroke-width="0.75" d="M485.68,154.727l-1.744-7.634l-2.601-6.304l-3.646-11.896
	l-1.923-9.905l-2.17-2.96l-2.467-4.859l-1.357-9.363l0.122-3.357l-2.583-5.114l-29.053-3.802l-18.897-2.72l-26.997-4.211
	l-23.501-4.555l1.858,59.433l56.025,9.321L485.68,154.727L485.68,154.727z"/>
<path id="WY" fill="#D3D3D3" stroke="#FFFFFF" stroke-width="0.75" d="M371.307,154.374L261.517,130.02l-2.488,77.699l116.406,25.22
	L371.307,154.374z"/>
<path id="MT" fill="#D3D3D3" stroke="#FFFFFF" stroke-width="0.75" d="M368.768,77.998l-31.409-6.048l-30.078-6.557l-30.144-6.991
	l-33.422-8.505l-19.097-5.165l-34.032-9.983l-1.694,18.626l4.474,7.16l-0.781,3.942l2.458,4.311l3.421,1.598l6.107,10.189
	l3.149,3.158l0.615,1.078l3.621,1.42l0.736,1.897l-4.83,14.97l0.334,2.255l2.97,3.159l0.925,0.106l4.462-2.112l0.542-0.946l1.71,0.8
	l0.468,4.689l4.447,11.591l3.342,2.597l1.016,0.721l2.155,2.26l-0.006,3.023l1.15,3.154l1.278,0.951l2.01-1.786l2.775,0.315
	l3.451,1.804l2.423-0.53l4.165,0.474l3.914,1.855l2.714-0.094l0.068-2.612l2.917-0.273l1.57,1.388l0.888,2.921l1.554,0.914
	l0.442-9.679l109.789,24.329L368.768,77.998L368.768,77.998z"/>
<path id="CO" fill="#D3D3D3" stroke="#FFFFFF" stroke-width="0.75" d="M414.819,315.969l-6.516-76.843l-116.407-24.39l-0.664,77.45
	L414.819,315.969z"/>
<path id="ID" fill="#D3D3D3" stroke="#FFFFFF" stroke-width="0.75" d="M161.326,159.762l4.191-30.574l0.825-3.635l1.754-5.041
	l-1.576-2.194l-2.529-0.188l-0.947-1.015l0.311-0.973l-0.063-2.729l3.782-4.407l1.789-0.2l1.006-0.893l0.152-2.804l0.834-0.509
	l3.158-4.78l3.354-3.448l-0.27-3.355l-3.819-2.752l-2.139-4.124l5.362-55.23l14.013,3.822l-1.616,18.668l4.598,7.123l-0.98,3.997
	l2.61,4.389l3.343,1.486l5.151,9.011l4.145,4.384l0.666,1.083l3.532,1.41l0.651,1.923l-4.742,14.777l0.175,2.284l3.103,3.281
	l0.91,0.062l4.565-2.148l0.541-0.904l1.668,0.771l0.43,4.77l4.444,11.597l4.386,3.3l1.989,2.136l-0.182,3.58l1.453,2.64l1.219,1.101
	l2.196-1.823l2.889,0.372l3.131,1.533l2.723-0.292l3.818,0.293l4.239,1.894l2.736,0.049l0.098-2.666l2.866-0.348l1.477,1.504
	l0.837,2.692l1.603,1.252l-1.356,47.106C259.826,187.015,168.603,161.916,161.326,159.762L161.326,159.762z"/>
<path id="UT" fill="#D3D3D3" stroke="#FFFFFF" stroke-width="0.75" d="M291.422,292.357l-86.315-20.285l5.866-98.546l48.495,13.227
	l-0.088,9.361l-0.588,11.545l8.023,1.732l16.84,3.506l8.422,1.715L291.422,292.357z"/>
<path id="AZ" fill="#D3D3D3" stroke="#FFFFFF" stroke-width="0.75" d="M185.126,344.203l-2.371,1.633l-0.133,1.268l0.619,0.924
	l20.557,11.746l13.277,8.207l16.024,9.377l18.343,10.922l12.753,3.59l25.605,5.297l1.621-104.834l-86.308-20.324l-0.946,14.36
	l-1.624-0.171l-1.384,2.161l-2.561-0.391l-1.637-2.605l-2.821-0.623l-1.078-1.133l-0.926-0.105l-0.849,0.41l-1.83,0.697l0.812,6.24
	l-0.003,1.511l1.093,11.209l-1.215,1.777l-0.138,2.906l3.43,4.723l2.047,5.373l0.947,1.014l1.116,0.633l0.188,2.037l-1.438,1.045
	l-3.242,1.143l-1.708,1.52l-1.016,3.109l0.075,4.34l-2.527,2.131l-1.991,0.381l0.248,0.758l-0.234,1.484l0.568,0.77l3.777,0.934
	l-0.214,2.395l-1.214,1.775L185.126,344.203L185.126,344.203z"/>
<path id="NV" fill="#D3D3D3" stroke="#FFFFFF" stroke-width="0.75" d="M211.014,173.429l-6.788,112.795l-1.808,0.103l-1.271,1.977
	l-2.399-0.266l-1.855-2.63l-2.7-0.639l-0.927-1.083l-1.058-0.168l-2.592,1.154l0.589,6.047l0.4,5.141l0.79,7.664l-1.187,1.707
	l-2.609-1.242l-83.749-101.387l10.228-58.418L211.014,173.429L211.014,173.429z"/>
<path id="OR" fill="#D3D3D3" stroke="#FFFFFF" stroke-width="0.75" d="M161.446,158.935l4.328-30.188l0.501-3.671l1.634-4.771
	l-0.777-1.113l-2.551-0.331l-1.518-1.646l0.268-1.261l0.078-2.854l3.78-4.408l1.705-0.774l1.004-0.894l1.03-3.026l3.34-4.619
	l3.094-3.053l-0.227-3.068l-3.636-2.591l-2.422-4.368l-13.294-4.698l-15.738-4.915l-15.599-1.674l-0.645-1.282l-5.278,1.213
	l-4.586-1.027l-2.642-1.711l-1.181,0.469l-4.772-0.744l-1.918-1.427l-5.593-2.45l-0.794,0.01l-4.592-1.833l-1.724,1.416
	l-6.291-1.018l-6.561-4.374l0.587-0.639l-0.802-6.944l-2.831-3.748l-4.238-0.986l-1.029-2.335l-2.443-0.689l-5.593,1.178
	l-1.43,5.538l-1.939,8.615l-2.411,5.426l-3.2,12.035l-4.738,11.433l-6.501,10.376l-1.576,2.386l0.322,7.59l1.997,10.876
	L161.446,158.935L161.446,158.935z"/>
<path id="WA" fill="#D3D3D3" stroke="#FFFFFF" stroke-width="0.75" d="M91.92,2.992l4.61,1.808l10.179,3.58l8.927,2.727
	l21.035,7.381l23.979,7.715l15.829,4.627l-5.339,55.45l-13.061-4.595l-16.166-4.988l-15.405-1.723l-0.639-1.258l-5.375,1.309
	l-4.748-1.19l-2.383-1.668l-1.241,0.44l-4.811-0.671l-1.897-1.405l-5.605-2.5l-0.725,0.047l-4.644-1.871l-1.673,1.411l-6.38-0.988
	l-6.544-4.38l0.664-0.749l-0.898-6.87l-2.819-3.706l-4.244-1.019l-1.02-2.328l-2.363-0.671l-3.433,0.693l-2.718-3.146l-0.06-2.572
	l2.738,0.025l1.099-3.437l-2.769-1.312l-0.331-3.315l4.331-0.078l-3.146-2.781l-2.417-6.546l0.267-2.534L61.672,14.8l-2.229-3.104
	l1.042-8.147l2.191,0.677l2.84,2.889l3.125,2.636l3.529,2.111l4.859,2.405l3.193,0.933l3.138,1.64l3.563,1.261l2.268,0.116
	l-0.323-2.175l1.158-0.865l1.955-0.918l0.478,1.052l0.564,1.633l-2.226,0.174l-0.048,1.847l1.993,1.51l1.467,2.305l0.912,1.813
	l1.452,0.023l-0.008-1.141l-1.154-1.271l-0.92-2.955l0.582-1.501l-0.848-1.379l-0.301-2.03l1.326-2.984l-1.489-2.451l-3.099-4.627
	l0.22-0.687L91.92,2.992L91.92,2.992z M83.147,7.266l2.022,0.087l0.674,1.288l1.339-1.272l2.371,0.269l1.022,1.47l-1.328,1.345
	l0.762,0.8l-0.468,1.729l-1.336,0.204c0,0-0.889-0.03-0.932-0.319c-0.042-0.29,1.129-2.152,1.129-2.152L86.61,10.01l-0.133,1.267
	l-0.65,0.497l-1.855-2.206L83.147,7.266z"/>
<path id="CA" fill="#D3D3D3" stroke="#FFFFFF" stroke-width="0.75" d="M184.851,343.789l3.921,0.018l1.237-1.635l0.16-2.574
	l-3.672-0.938l-0.609-0.658l0.212-1.768l-0.24-0.547l1.863-0.334l2.702-2.191l-0.075-4.41l0.943-2.893l1.679-1.719l3.35-1.021
	l1.461-1.248l-0.211-1.883l-1.082-0.635l-1.178-1.08l-1.946-5.377l-3.359-4.641l0.106-3.076l-2.585-1.203l-83.728-101.365
	l10.136-58.443l-69.957-21.798l-0.895,4.071l0.824,6.649l-3.665,9.986l-2.763,1.966l-0.177,0.978l-1.692,0.52l-0.913,3.601
	l-0.388,2.807l3.34,4.085l2.194,3.954l1.619,3.321l0.533,5.761l-1.392,2.55l0.12,5.143l-0.488,3.223l2.315,3.683l3.382,4.375
	l2.935,4.608l1.846,3.775l0.104,2.861l-0.263,0.398l0.28,1.884l6.562,6.303l-0.169,2.12l-0.353,1.953l-0.396,1.667l1.26,7.412
	l2.621,3.578l2.307,2.541l2.844,0.75l1.347,2.577l-0.672,3.059l-1.912,1.208l-1.145-0.13l-0.302,3.387l0.876,2.665l3.852,4.285
	l2.345,4.969l2.095,4.372l1.717,2.903l4.209,5.611l1.816,2.485l0.876,2.664l1.765,1.059l0.323,2.172l-0.561,1.646l-0.854,6.175
	l-0.232,1.685l2.819,2.743l4.316,0.917l4.817,2.117l4.205,2.331l2.943,0.335l3.353,3.089l3.263,4.647l1.445,2.16l4.205,2.332
	l5.015,1.281l1.751,2.053l1.084,2.975l-1.386,0.414l0.456,0.904l3.379,1.098l2.803,0.461l2.972-1.148l4.485,4.215l1.119,2.123
	l3.176,4.066l0.757,2.936l1.248,8.408l0.727,1.65l10.334,2.457l20.32,4.736L184.851,343.789L184.851,343.789z M89.864,294.442
	l1.513,1.529l0.008,1.14l-3.282-0.444l-0.734-1.152l-0.848-1.38L89.864,294.442L89.864,294.442z M91.826,294.667l1.141-0.44
	l3.878,2.294l3.269,1.44l-0.814,0.477l-4.612-0.738l-1.85-1.637L91.826,294.667L91.826,294.667z M115.396,314.807l2.111,2.305
	l0.946,0.965l1.629,0.686l0.379-1.238l-1.218-1.707l-2.968-2.123l-1.041,0.025L115.396,314.807z M115.074,322.395l2.218,3.029
	l1.484,1.883l-1.44,0.049l-1.469-1.234c0,0-0.93-1.389-0.982-1.752c-0.054-0.361-0.291-1.957-0.291-1.957L115.074,322.395
	L115.074,322.395z"/>
</svg>
